<svg id="Layer_1" data-name="Layer 1" xmlns="http://www.w3.org/2000/svg" viewBox="0 0 432.84 72.84"><defs><style>.cls-1{fill:#f78f21;}.cls-2{fill:#fff;}.cls-3{fill:#1e2939;}.cls-4{fill:none;}.cls-5{fill:#f78f22;}</style></defs><rect class="cls-1" y="-0.54" width="432.84" height="73.67"/><path class="cls-2" d="M285.67,22c0-10.26,6.82-12.6,15.71-12.6,4.2,0,16.81,1.35,19.82,1.7v4.25c-5.07-.29-19.82-.71-19.82-.71-5.56-.21-9.84.28-9.84,7.36v4.68c0,6.44,3.33,6.94,8.09,6.94h11.26c10.55,0,12.38,6.37,12.38,12.17v4.82c0,10-8.17,11.61-16,11.61-3.89,0-16.18-1.2-19.83-1.77V56.18c3.17.29,12.45.78,19.83.78,3.25,0,10.15-.14,10.15-6.37V45.77c0-4-1.35-6.93-6.51-6.93h-11.1c-12.69,0-14.12-6.24-14.12-12.18Z"/><path class="cls-2" d="M333.18,9.8h21.57c17.85,0,20.62,15.51,20.62,26.13,0,11.76-5.31,25.71-20.62,25.71H333.18Zm21.57,46.38c10.47,0,14.76-9.41,14.76-20.32C369.51,20.71,364,15,354.75,15h-15.7V56.18Z"/><path class="cls-2" d="M384.1,22c0-10.26,6.82-12.6,15.7-12.6,4.2,0,16.81,1.35,19.83,1.7v4.25c-5.08-.29-19.83-.71-19.83-.71-5.55-.21-9.83.28-9.83,7.36v4.68c0,6.44,3.33,6.94,8.09,6.94h11.26c10.55,0,12.37,6.37,12.37,12.17v4.82c0,10-8.17,11.61-16,11.61-3.89,0-16.18-1.2-19.83-1.77V56.18c3.17.29,12.45.78,19.83.78,3.25,0,10.15-.14,10.15-6.37V45.77c0-4-1.35-6.93-6.5-6.93H398.21c-12.69,0-14.11-6.24-14.11-12.18Z"/><path class="cls-3" d="M11.21,9.45H24.62v38c0,3.76,2.67,3.7,5.07,3.7H48.57V61.79H24.14c-6.91,0-13-2.53-13-10.61l.06-41.73Z"/><path class="cls-3" d="M54.86,9.45H68.28V61.79H54.86Z"/><path class="cls-4" d="M168.1,39.21H156.54V51.66H168.1c3.28,0,5.47-1.64,5.47-6.09C173.57,42.29,172.2,39.21,168.1,39.21Z"/><path class="cls-4" d="M172.61,24.71c0-4.11-2.73-5.14-5.13-5.14H156.54V29.63h10.94C170.83,29.63,172.61,27.65,172.61,24.71Z"/><path class="cls-3" d="M120.48,47.63V40.37a6.91,6.91,0,0,1,1.91-4.58,6.91,6.91,0,0,1-1.91-4.58V24a6.93,6.93,0,0,1,3.15-5.61v-9H110.22V40.1L89.42,9.38H75.8V61.72H89.28V31.55l20.87,30.17h13.54V53.3A7.11,7.11,0,0,1,120.48,47.63Z"/><path class="cls-2" d="M177.33,34.63c5.89-.69,8.42-6.44,8.42-11.09,0-8.14-4.86-14.09-17.38-14.09H143.06v9A7,7,0,0,1,146.14,24v7.26a6.92,6.92,0,0,1-1.92,4.58,6.92,6.92,0,0,1,1.92,4.58v7.26a6.91,6.91,0,0,1-3.08,5.54v8.55h25.59c12.58,0,18.26-5.06,18.26-15.67A11.17,11.17,0,0,0,177.33,34.63ZM156.54,19.57h10.94c2.4,0,5.13,1,5.13,5.14,0,2.94-1.78,4.92-5.13,4.92H156.54ZM168.1,51.66H156.54V39.21H168.1c4.1,0,5.47,3.08,5.47,6.36C173.57,50.09,171.38,51.66,168.1,51.66Z"/><rect class="cls-2" x="192.8" y="9.45" width="13.41" height="52.34"/><polygon class="cls-2" points="211.54 9.45 211.54 20.12 227.21 20.12 227.21 61.79 240.62 61.79 240.62 20.12 256.77 20.12 256.77 9.45 211.54 9.45"/><path class="cls-3" d="M125.06,34l5-2.87a7,7,0,0,1,6.57,0l5,2.87a3.78,3.78,0,0,0,1.44-2.74V24a3.86,3.86,0,0,0-1.71-3l-6.3-3.63a3.81,3.81,0,0,0-3.42,0L125.34,21a3.89,3.89,0,0,0-1.71,2.74v7.66A4.28,4.28,0,0,0,125.06,34Z"/><path class="cls-5" d="M123.63,24v7.25a.29.29,0,0,0,.06.21V23.82C123.69,23.88,123.63,24,123.63,24Z"/><path class="cls-2" d="M141.62,37.64l-.27-.28-2.81-1.57-3.49-2a3.69,3.69,0,0,0-3.42,0l-3.49,2-2.8,1.57a.55.55,0,0,0-.28.28,3.75,3.75,0,0,0-1.37,2.53c0,.07-.06.13-.06.2v7.26a.27.27,0,0,0,.06.2,3.74,3.74,0,0,0,1.71,2.74l6.3,3.62a3.77,3.77,0,0,0,3.42,0l6.29-3.62a3.84,3.84,0,0,0,1.72-3V40.3A4.28,4.28,0,0,0,141.62,37.64Z"/></svg>